<?xml version="1.0" encoding="UTF-8"?><svg id="Layer_1" xmlns="http://www.w3.org/2000/svg" viewBox="0 0 225.11 118.97"><path d="m113.22,24.61c-6.51,1.94-13.05,6.12-16.16,8.3-1.51.32-3.01.6-4.27.35.16-.35,2.61-1.24,2.72-1.61-2.86-.4-7.84.12-10.9-.37-.12-.02-.23-.05-.34-.07.9-.5,1.8-1,2.7-1.5-1.5-.54-3.78-.72-5.93-.98-1.48-.19-2.89-.41-3.93-.87-.04-.31,2.62-1.13,2.8-1.41-1.05-.44-2.56-.72-4.07-1-1.56-.29-3.12-.59-4.14-1.03.04-.34,2.55-1.15,2.73-1.42.13-.25.25-.48.37-.73,0,0-11.84-2.06-10.76-2.36.14-.03.5-.03,1.1,0,7.24.36,9.63-1.17,9.63-1.17-1.16-.92-2.34-1.83-3.51-2.74,1.74.05,4.9.04,7.33-.23.71-.08,1.38-.17,1.9-.31-.21-.3-1.26-.64-2.24-.94-.9-.29-1.76-.54-2.01-.78l.1-.15c2.18-.3,7.17-.41,9.51-1.42-.29-.23-1.39-.42-2.44-.59-.9-.15-1.79-.27-2.11-.43l.24-.37c1.37-.41,3.31-.77,5.22-1.16,1.8-.37,3.58-.78,4.72-1.31-1.38-.39-2.77-.78-4.16-1.16,2.36-.94,4.79-1.83,7.4-2.44-.31-.27-.65-.39-1.04-.51-.22-.07-.44-.16-.67-.27,2.83-.57,5.52-2.13,8.38-1.7.07-.04.15-.06.22-.09-.3-.29-.61-.58-.89-.87,1.43-.02,2.98-.07,4.54-.03.44,0,.88.03,1.32.06-.21-.37-.7-.68-1.05-.98,2-.15,4.1-.07,6.2.05.26.02.51.04.78.06.59.13,2.09.79,3.53,1.42,1.31.57,2.57,1.12,3.12,1.28-.98-.67-1.97-1.34-2.96-2.02-.29-.39-.58-.76-.86-1.14,2.31.32,4.86,1.02,7.16,1.68.19-.51-.49-.87-.43-1.33,1.8.71,3.47,1.51,5.06,2.39,4.73,2.59,8.66,5.75,12.81,8.75.55.37,1.19.73,1.86,1.09,1.81.94,3.88,1.8,5.6,2.85,3.94-.98,6.19-2.02,7.58-2.91-.18.35-.38.72-.62,1.13-1.62.86-4.05,1.81-7.87,2.68-7.25,1.4-13.87,1.56-20.2.5-.43-.39-.89-.74-1.32-1.1-4.01-3.25-10.24-7.2-17.21-7.62-.31-.02-.6.19-.68.51-.06.25.04.5.22.65.06.05.11.07.17.1,1.04.42,2.05.8,3.02,1.14,3.48,1.29,6.79,2.51,11.1,5.91-2.51-.29-5.08-.29-7.64.02-5.96-3.28-12.4-3.77-18.63-4.26l-.85-.07c-.31-.03-.59.15-.69.44-.09.25,0,.53.2.71.02.01.04.02.06.04,1.54,1,3.67,1.29,6.15,1.62,2.74.37,6.05.83,9.45,2.41-3.35.7-10.63,2.27-15.56,3.72-5.92,1.73-14.11.8-14.19.8-.35-.04-.67.18-.73.53-.06.24.04.47.23.62.06.05.14.09.25.11,9.85,2.54,19.98-.33,27.38-2.41,3.15-.88,5.88-1.66,7.97-1.85,3.63-.38,7.32.01,10.9.41.11.01.21.02.3.02-.3-.02,0,0,.08.21-1.1-.03-2.4-.07-3.2.12-3.78.96-6.91,1.92-8.62,2.54l-2.73.96,1.49,1.46Zm28.34,28.46c-.38-.36-.08-1.14-.64-1.47-5.59,6.69-11.92,11.19-13.77,12.36.06-.49.25-1.09.16-1.58-.37.32-.75.63-1.11.94-4.47,3.2-9.85,4.3-12.79,5.62.33-.72.79-1.14.91-1.85-8.33,2.65-14.68,2.67-16.19,3.18-.17-.05-.33-.12-.49-.17.36-.76,3.04-3.15,3.19-3.92-2.8.64-14.23,4.94-15.7,6.13.33-1.6.64-3.21.95-4.79,0,0-3.25.17-9.3,5.29-.51.41-.81.65-.96.71-.03.01-.06.01-.07.01-.57-.15,7.65-9.26,7.65-9.26-.3-.13-.58-.26-.88-.39-.17-.06-.91.11-1.66.27-.82.18-1.66.36-1.83.24,1.07-2.15,4.87-10.75,9.28-14.88-1.18.15-2.34.28-3.52.43.09-.11.18-.2.25-.28,2.33-2.49,8.27-9.85,14.58-12.33-1.1-.57-2.18-1.14-3.28-1.69.73-.58,9.25-6.92,17.52-9.36,1.78-.3,3.45-.61,4.65-1.07-.38-.12-3.17-1.13-3.42-1.35,3.17-1.12,19.9-6.27,30.74-5.33,1.5.01,2.99.08,4.5.16,4.5-4.69,5.16-7.18,5.52-8.58.54-2.02,1.29-2.98,4.26-3.24.48-.04.93.11,1.27.39.34.27.58.66.62,1.12l.36,2.85c.02.32-.02.65-.16.95-3.22,6.49-7.34,10.33-11.12,13.02-.56,1.27-1.18,2.54-1.69,3.77-.33.76-.61,1.47-.79,2.21-1.32,5.44-2.32,10.91-4.44,16.38-.72,1.83-1.57,3.65-2.59,5.48Zm-51.01,11.97c10.78-3.14,18.66-11.53,24.42-17.65,1.81-1.91,3.43-3.63,4.91-4.97-.9,3.5-2.49,6.3-3.93,8.8-1.36,2.37-2.54,4.41-2.67,6.43-.01.29.11.55.32.72.07.07.17.12.29.17.38.12.8-.03,1.01-.35l.37-.58c3.6-5.48,7.33-11.15,8.59-18.1,2.04-1.25,4.21-2.31,6.59-3.41.36,6.79-.85,10.7-2.12,14.81-.33,1.09-.66,2.18-.98,3.35-.09.33.03.67.29.88.05.04.12.09.19.11.39.17.85.05,1.09-.29,4.32-6.3,4.97-14.41,4.71-20.33,3-1.37,6.13-2.93,9.02-5.06.94-.7,2.06-1.37,3.36-2.15,4.6-2.76,10.89-6.56,15.36-15.61.09-.15.1-.31.1-.48l-.35-2.83c-.03-.23-.15-.43-.31-.57-.17-.13-.4-.22-.64-.2-2.61.24-3.03.94-3.48,2.6-.43,1.65-1.23,4.69-7.35,10.56-6.03,5.38-12.12,9.24-18.65,11.77-6.28-1.11-15.2-1.6-22.54,2.21-.37.2-.56.63-.41,1.03.04.16.14.29.27.4.17.15.43.23.67.18,1.24-.18,2.41-.41,3.53-.62,3.89-.72,7.6-1.41,13.33-.74-2.36,1.11-4.61,2.47-6.71,4.13-7.53.25-13.87,3.38-20.02,6.42l-.83.41c-.35.17-.55.57-.47.95.06.19.16.36.31.48.14.12.32.19.51.2,2.05.08,4.24-.86,6.78-1.94,2.69-1.12,5.93-2.5,9.84-2.98-2.87,2.66-8.51,8-12.18,11.96-4.51,4.9-12.77,8.64-12.85,8.67-.42.19-.62.66-.45,1.09.04.15.14.28.26.36.23.18.51.25.81.16Z" style="fill:#4c5d6d; stroke-width:0px;"/><g id="SvgjsG1413"><path d="m10.11,105.61c-6.32,0-9.79-3.13-10.11-8.27h5.66c.11,1.89,1.2,3.79,4.6,3.79,2.85,0,4.31-1.13,4.31-2.7,0-1.93-2.45-2.44-5.29-3.06-3.98-.95-8.84-2.11-8.84-8.05,0-4.37,3.4-7.61,9.38-7.61s9.46,3.31,9.82,8.2h-5.7c-.11-2-1.2-3.61-4.27-3.61-2.26,0-3.76.91-3.76,2.55,0,2.11,2.48,2.7,5.33,3.35,4.09.91,8.98,1.93,8.98,7.54,0,4.55-3.58,7.87-10.11,7.87Zm28.63-.47v-9.76h-10.59v9.76h-5.66v-24.95h5.66v10.02h10.59v-10.02h5.66v24.95h-5.66Zm22.78-9.29l-3.25-9.76-3.25,9.76h6.5Zm3.1,9.29l-1.42-4.3h-9.82l-1.42,4.3h-5.81l8.84-24.95h6.94l8.8,24.95h-6.1Zm23.37,0l-10.08-15.81v15.81h-5.44v-24.95h6.17l10.08,15.85v-15.85h5.44v24.95h-6.17Zm22.09-13.33l8.91-11.62h6.61l-9.93,12.46,10.22,12.49h-7.34l-8.47-10.64v10.64h-5.66v-24.95h5.66v11.62h0Zm22.89,13.33h-5.66v-24.95h5.66v24.95Zm22.86-20.22c-4.24,0-7.45,3.39-7.45,7.69s3.21,7.76,7.63,7.76c3.07,0,5.4-1.6,6.83-4.04l4.42,3.06c-2.41,3.93-6.1,6.27-11.17,6.27-7.7,0-13.47-5.72-13.47-13.04s5.73-12.93,13.33-12.93c4.93,0,8.84,2.04,11.21,6.23l-4.49,3.1c-1.46-2.4-3.65-4.08-6.83-4.08Zm29.87,20.22v-9.76h-10.59v9.76h-5.66v-24.95h5.66v10.02h10.59v-10.02h5.66v24.95h-5.66Zm22.78-9.29l-3.25-9.76-3.25,9.76h6.5Zm3.1,9.29l-1.42-4.3h-9.82l-1.42,4.3h-5.81l8.84-24.95h6.94l8.8,24.95h-6.1Zm13.51,0h-5.66v-24.95h5.66v24.95Z" style="fill:#4c5d6d; stroke-width:0px;"/></g><g id="SvgjsG1414"><path d="m20.92,117.37c.43.41,1.33.82,2.23.82,1.38,0,2.26-.71,2.26-1.83,0-.91-.43-1.44-1.94-2.29-1.15-.66-1.42-.88-1.42-1.31,0-.46.43-.83,1.17-.83.42,0,.99.19,1.31.4l.47-.71c-.46-.31-1.2-.53-1.78-.53-1.27,0-2.12.73-2.12,1.69,0,.85.42,1.27,1.73,1.99,1.16.63,1.63,1.1,1.63,1.6,0,.59-.51.95-1.31.95-.69,0-1.38-.33-1.73-.64l-.5.71Zm7.04.72v-6.92h.89v6.92s-.89,0-.89,0Zm6.43-6.92c1.62,0,2.38,1.22,2.38,2.52s-.76,2.52-2.38,2.52h-1.73v1.88h-.89v-6.92h2.62Zm-.04,4.19c.91,0,1.51-.7,1.51-1.67s-.6-1.67-1.51-1.67h-1.69v3.34h1.69Zm5.28,1.62h.73l-.62,1.99h-.61l.5-1.99Zm7.64.39c.43.41,1.33.82,2.23.82,1.38,0,2.26-.71,2.26-1.83,0-.91-.43-1.44-1.94-2.29-1.15-.66-1.42-.88-1.42-1.31,0-.46.43-.83,1.17-.83.42,0,.99.19,1.31.4l.47-.71c-.46-.31-1.2-.53-1.78-.53-1.27,0-2.12.73-2.12,1.69,0,.85.42,1.27,1.73,1.99,1.16.63,1.63,1.1,1.63,1.6,0,.59-.51.95-1.31.95-.69,0-1.38-.33-1.73-.64l-.5.71Zm13.65-6.29h.11v7.01h-.88v-4.65l-2.45,3.2h-.06l-2.45-3.19v4.64h-.88v-7.01h.1l3.26,4.15,3.25-4.15Zm3.04,7.01v-6.92h.89v6.92h-.89Zm4.71-.85h2.92l-.06.85h-3.75v-6.92h.89v6.07Zm9.41,0l.06.85h-4.21v-6.92h4.01l.07.85h-3.19v1.69h2.16v.85h-2.16v2.68s3.26,0,3.26,0Zm2.81-.26h.73l-.62,1.99h-.61l.5-1.99Zm7.64.39c.43.41,1.33.82,2.23.82,1.38,0,2.26-.71,2.26-1.83,0-.91-.43-1.44-1.94-2.29-1.15-.66-1.42-.88-1.42-1.31,0-.46.43-.83,1.17-.83.42,0,.99.19,1.31.4l.47-.71c-.46-.31-1.2-.53-1.78-.53-1.27,0-2.12.73-2.12,1.69,0,.85.42,1.27,1.73,1.99,1.16.63,1.63,1.1,1.63,1.6,0,.59-.51.95-1.31.95-.69,0-1.38-.33-1.73-.64l-.5.71Zm11.35-6.19h.89v6.92h-.89v-3.18h-3.43v3.18h-.89v-6.92h.89v2.88h3.43v-2.88Zm8.36,6.92l-.6-1.4h-3.08l-.6,1.4h-.95l3.04-7.01h.1l3.04,7.01h-.95Zm-3.33-2.23h2.37l-1.19-2.74-1.19,2.74Zm11.27-4.68h.89v7.01h-.11l-4.64-4.93v4.83h-.88v-7.01h.1l4.64,4.93v-4.83Zm12.49,6.92l-2.04-3.15-1.11,1.37v1.78h-.89v-6.92h.89v3.76l3.07-3.76h1.08l-2.44,3.02,2.48,3.89s-1.04,0-1.04,0Zm3.46,0v-6.92h.89v6.92h-.89Zm8.18-3.46c0-2,1.57-3.56,3.55-3.56.83,0,1.62.28,2.32.81l-.44.69c-.58-.44-1.19-.66-1.88-.66-1.49,0-2.66,1.2-2.66,2.72s1.18,2.72,2.66,2.72c.75,0,1.39-.24,1.88-.7l.45.68c-.6.54-1.45.86-2.33.86-1.98,0-3.55-1.57-3.55-3.56Zm12.74-3.46h.89v6.92h-.89v-3.18h-3.43v3.18h-.89v-6.92h.89v2.88h3.43v-2.88Zm8.36,6.92l-.6-1.4h-3.08l-.6,1.4h-.95l3.04-7.01h.1l3.04,7.01h-.95Zm-3.33-2.23h2.37l-1.19-2.74-1.19,2.74Zm6.52,2.23v-6.92h.89v6.92h-.89Zm8.07-.72c.43.41,1.33.82,2.23.82,1.38,0,2.26-.71,2.26-1.83,0-.91-.43-1.44-1.94-2.29-1.15-.66-1.42-.88-1.42-1.31,0-.46.43-.83,1.17-.83.42,0,.99.19,1.31.4l.47-.71c-.46-.31-1.2-.53-1.78-.53-1.27,0-2.12.73-2.12,1.69,0,.85.42,1.27,1.73,1.99,1.16.63,1.63,1.1,1.63,1.6,0,.59-.51.95-1.31.95-.69,0-1.38-.33-1.73-.64l-.5.71Zm11.35-5.34h-2.02v6.07h-.89v-6.07h-2.03l.06-.85h4.81l.06.85Zm7.49-.85l-2.44,3.84v3.07h-.89v-3.06l-2.45-3.85h1.01l1.89,2.97,1.88-2.97h1.01,0Zm3.2,6.07h2.92l-.06.85h-3.75v-6.92h.89v6.07Zm9.41,0l.06.85h-4.21v-6.92h4.01l.07.85h-3.19v1.69h2.16v.85h-2.16v2.68h3.26,0Z" style="fill:#4c5d6d; stroke-width:0px;"/></g></svg>