<?xml version="1.0" encoding="utf-8"?>
<!-- Generator: Adobe Illustrator 27.9.0, SVG Export Plug-In . SVG Version: 6.00 Build 0)  -->
<svg version="1.1" id="Layer_1" xmlns="http://www.w3.org/2000/svg" xmlns:xlink="http://www.w3.org/1999/xlink" x="0px" y="0px"
	 viewBox="0 0 1920 1080" style="enable-background:new 0 0 1920 1080;" xml:space="preserve">
<style type="text/css">
	.st0{fill:#6D496B;}
	.st1{fill:#486C6D;}
	.st2{fill:#4C5D6D;}
</style>
<g>
	<g>
		<path class="st0" d="M553.59,181.51c-28.44,8.74-57.04,27.61-70.62,37.42c-6.61,1.44-13.17,2.71-18.64,1.57
			c0.71-1.57,11.42-5.61,11.87-7.25c-12.48-1.78-34.25,0.56-47.65-1.68c-0.53-0.1-0.99-0.21-1.51-0.3
			c3.94-2.25,7.86-4.52,11.78-6.75c-6.55-2.44-16.53-3.23-25.91-4.41c-6.45-0.85-12.62-1.87-17.19-3.93
			c-0.15-1.38,11.46-5.1,12.22-6.34c-4.61-1.98-11.21-3.25-17.78-4.49c-6.8-1.32-13.63-2.65-18.1-4.66
			c0.17-1.51,11.16-5.2,11.94-6.4c0.57-1.14,1.1-2.15,1.63-3.29c0,0-51.76-9.31-47.02-10.64c0.63-0.14,2.17-0.14,4.82,0
			c31.62,1.6,42.09-5.26,42.09-5.26c-5.09-4.13-10.24-8.26-15.33-12.37c7.59,0.25,21.4,0.2,32.02-1.02c3.12-0.35,6.03-0.77,8.32-1.4
			c-0.91-1.37-5.48-2.86-9.79-4.24c-3.92-1.3-7.68-2.46-8.79-3.53l0.46-0.66c9.52-1.35,31.35-1.87,41.54-6.39
			c-1.28-1.05-6.06-1.91-10.67-2.68c-3.92-0.66-7.84-1.23-9.21-1.92l1.06-1.68c5.98-1.85,14.47-3.45,22.81-5.24
			c7.88-1.67,15.63-3.51,20.63-5.89c-6.05-1.74-12.11-3.5-18.16-5.24c10.32-4.22,20.95-8.27,32.33-11c-1.35-1.2-2.85-1.76-4.53-2.32
			c-0.95-0.33-1.92-0.71-2.93-1.2c12.38-2.57,24.12-9.59,36.63-7.66c0.3-0.17,0.65-0.28,0.95-0.42c-1.29-1.29-2.67-2.62-3.88-3.9
			c6.24-0.09,13.02-0.31,19.82-0.15c1.94,0,3.84,0.15,5.79,0.29c-0.93-1.66-3.07-3.08-4.59-4.42c8.76-0.66,17.94-0.3,27.07,0.22
			c1.13,0.08,2.25,0.16,3.42,0.28c2.59,0.61,9.14,3.58,15.42,6.39c5.71,2.59,11.22,5.07,13.63,5.78c-4.3-3.03-8.62-6.06-12.94-9.09
			c-1.28-1.74-2.55-3.42-3.77-5.13c10.11,1.44,21.22,4.58,31.3,7.58c0.82-2.29-2.13-3.93-1.9-5.98c7.86,3.19,15.17,6.83,22.12,10.79
			c20.67,11.69,37.86,25.94,55.97,39.49c2.41,1.68,5.22,3.31,8.15,4.9c7.92,4.25,16.95,8.11,24.47,12.87
			c17.23-4.43,27.05-9.09,33.15-13.12c-0.77,1.57-1.64,3.25-2.7,5.1c-7.08,3.88-17.71,8.16-34.39,12.07
			c-31.7,6.33-60.6,7.05-88.26,2.25c-1.88-1.74-3.87-3.36-5.78-4.96c-17.51-14.65-44.77-32.48-75.23-34.35
			c-1.34-0.09-2.63,0.88-2.99,2.28c-0.25,1.13,0.16,2.25,0.98,2.91c0.24,0.23,0.48,0.34,0.74,0.47c4.53,1.91,8.95,3.59,13.21,5.16
			c15.21,5.81,29.66,11.32,48.5,26.64c-10.96-1.32-22.2-1.3-33.39,0.11c-26.05-14.79-54.18-17.01-81.43-19.2l-3.71-0.3
			c-1.37-0.14-2.6,0.67-3.02,1.98c-0.4,1.13,0,2.39,0.89,3.22c0.1,0.06,0.18,0.11,0.27,0.17c6.74,4.5,16.05,5.8,26.89,7.32
			c11.99,1.68,26.46,3.75,41.29,10.89c-14.64,3.16-46.45,10.22-67.99,16.8c-25.85,7.82-61.68,3.59-62.02,3.59
			c-1.54-0.19-2.95,0.82-3.2,2.39c-0.27,1.08,0.19,2.1,1.03,2.82c0.27,0.22,0.63,0.4,1.1,0.51c43.04,11.43,87.3-1.5,119.64-10.88
			c13.78-3.99,25.7-7.47,34.84-8.35c15.87-1.73,32.01,0.06,47.64,1.85c0.48,0.05,0.9,0.11,1.32,0.11c-1.32-0.11,0,0,0.35,0.97
			c-4.8-0.14-10.48-0.3-14,0.52c-16.54,4.32-30.22,8.68-37.68,11.44l-11.91,4.34L553.59,181.51z M677.42,309.88
			c-1.66-1.63-0.36-5.16-2.78-6.64c-24.42,30.18-52.07,50.45-60.18,55.77c0.27-2.2,1.1-4.9,0.7-7.11c-1.61,1.44-3.28,2.82-4.83,4.24
			c-19.55,14.42-43.06,19.38-55.87,25.36c1.45-3.23,3.47-5.16,4-8.33c-36.4,11.96-64.16,12.04-70.77,14.36
			c-0.74-0.25-1.42-0.52-2.14-0.77c1.56-3.42,13.3-14.22,13.93-17.69c-12.25,2.86-62.17,22.3-68.63,27.66
			c1.43-7.22,2.78-14.46,4.13-21.62c0,0-14.22,0.77-40.63,23.86c-2.23,1.84-3.52,2.92-4.21,3.22c-0.12,0.06-0.26,0.06-0.31,0.06
			c-2.48-0.67,33.43-41.74,33.43-41.74c-1.29-0.58-2.55-1.18-3.85-1.74c-0.74-0.28-3.96,0.5-7.27,1.21
			c-3.58,0.83-7.27,1.6-7.99,1.08c4.68-9.7,21.28-48.49,40.55-67.09c-5.14,0.67-10.24,1.27-15.4,1.93c0.4-0.5,0.8-0.9,1.09-1.27
			c10.16-11.24,36.13-44.41,63.74-55.6c-4.81-2.56-9.54-5.13-14.32-7.63c3.17-2.64,40.43-31.22,76.55-42.21
			c7.79-1.37,15.07-2.75,20.31-4.84c-1.68-0.56-13.87-5.1-14.92-6.09c13.87-5.04,86.97-28.3,134.36-24.05
			c6.54,0.06,13.07,0.37,19.65,0.72c19.66-21.14,22.55-32.38,24.13-38.68c2.38-9.09,5.62-13.45,18.61-14.61
			c2.09-0.19,4.08,0.48,5.56,1.74c1.47,1.21,2.53,2.98,2.69,5.04l1.56,12.84c0.1,1.46-0.09,2.94-0.72,4.3
			c-14.07,29.26-32.07,46.6-48.59,58.74c-2.44,5.74-5.14,11.46-7.39,17.02c-1.44,3.42-2.66,6.65-3.45,9.98
			c-5.75,24.52-10.14,49.2-19.42,73.89C685.57,293.44,681.86,301.62,677.42,309.88z M454.51,363.85
			c47.12-14.16,81.56-52.02,106.73-79.63c7.92-8.62,15-16.38,21.47-22.41c-3.92,15.78-10.87,28.41-17.15,39.68
			c-5.95,10.7-11.09,19.9-11.69,29c-0.06,1.32,0.48,2.5,1.4,3.27c0.3,0.31,0.76,0.56,1.25,0.75c1.67,0.52,3.48-0.14,4.41-1.57
			l1.62-2.61c15.75-24.72,32.04-50.29,37.54-81.62c8.9-5.63,18.41-10.42,28.81-15.38c1.55,30.62-3.71,48.25-9.26,66.78
			c-1.42,4.91-2.9,9.82-4.3,15.13c-0.38,1.5,0.15,3.03,1.27,3.99c0.23,0.19,0.54,0.42,0.84,0.5c1.7,0.77,3.72,0.22,4.78-1.32
			c18.88-28.41,21.71-65,20.59-91.67c13.1-6.2,26.81-13.2,39.43-22.81c4.13-3.18,9-6.17,14.68-9.71
			c20.1-12.47,47.59-29.59,67.13-70.41c0.37-0.67,0.42-1.41,0.42-2.16l-1.52-12.78c-0.14-1.05-0.64-1.96-1.37-2.56
			c-0.73-0.61-1.74-0.97-2.79-0.88c-11.39,1.08-13.25,4.22-15.21,11.74c-1.89,7.44-5.36,21.13-32.13,47.64
			c-26.34,24.28-52.97,41.68-81.5,53.1c-27.47-5.01-66.44-7.22-98.51,9.95c-1.62,0.88-2.44,2.86-1.79,4.64
			c0.2,0.73,0.59,1.3,1.18,1.79c0.76,0.67,1.87,1.03,2.93,0.82c5.4-0.82,10.51-1.84,15.42-2.79c17-3.23,33.23-6.34,58.25-3.34
			c-10.32,5.02-20.14,11.16-29.32,18.61c-32.92,1.13-60.63,15.23-87.5,28.98l-3.62,1.85c-1.54,0.77-2.4,2.55-2.06,4.29
			c0.25,0.86,0.7,1.64,1.37,2.17c0.61,0.53,1.4,0.84,2.25,0.89c8.96,0.35,18.54-3.9,29.61-8.74c11.75-5.07,25.89-11.29,42.99-13.45
			c-12.53,12.01-37.2,36.07-53.25,53.93c-19.72,22.11-55.81,38.97-56.14,39.09c-1.83,0.85-2.72,3-1.96,4.89
			c0.17,0.67,0.63,1.28,1.13,1.63C452,363.97,453.21,364.28,454.51,363.85z"/>
	</g>
	<g id="SvgjsG1413" transform="matrix(2.8386049581286716,0,0,2.8386049581286716,-0.7948099838390495,109.91160091331213)">
		<path class="st1" d="M69.6,276.16c-16.59,0-25.7-8.35-26.56-22.04H57.9c0.29,5.05,3.16,10.1,12.08,10.1
			c7.48,0,11.31-3.01,11.31-7.19c0-5.15-6.42-6.51-13.9-8.16c-10.45-2.52-23.2-5.63-23.2-21.46c0-11.65,8.92-20.3,24.64-20.3
			c16.01,0,24.83,8.84,25.79,21.85H79.67c-0.29-5.34-3.16-9.61-11.22-9.61c-5.94,0-9.88,2.43-9.88,6.8c0,5.63,6.52,7.19,14,8.93
			c10.74,2.43,23.59,5.15,23.59,20.1C96.16,267.32,86.77,276.16,69.6,276.16z M144.78,274.89v-26.03h-27.81v26.03h-14.86v-66.52
			h14.86v26.71h27.81v-26.71h14.86v66.52H144.78z M204.61,250.13l-8.53-26.03l-8.53,26.03H204.61z M212.76,274.89l-3.74-11.46
			h-25.79l-3.74,11.46h-15.25l23.2-66.52h18.22l23.11,66.52H212.76z M274.13,274.89l-26.46-42.15v42.15h-14.29v-66.52h16.2
			l26.46,42.24v-42.24h14.29v66.52H274.13z M332.14,239.35l23.4-30.98h17.36l-26.08,33.21l26.85,33.31h-19.27l-22.25-28.36v28.36
			h-14.86v-66.52h14.86L332.14,239.35L332.14,239.35z M392.26,274.89H377.4v-66.52h14.86V274.89z M452.28,221
			c-11.12,0-19.56,9.03-19.56,20.49c0,11.75,8.44,20.68,20.04,20.68c8.05,0,14.19-4.27,17.93-10.78l11.6,8.16
			c-6.33,10.49-16.01,16.7-29.34,16.7c-20.23,0-35.38-15.25-35.38-34.77c0-19.33,15.05-34.47,35-34.47
			c12.94,0,23.2,5.44,29.44,16.61l-11.79,8.25C466.38,225.46,460.62,221,452.28,221z M530.72,274.89v-26.03h-27.81v26.03h-14.86
			v-66.52h14.86v26.71h27.81v-26.71h14.86v66.52H530.72z M590.55,250.13l-8.53-26.03l-8.53,26.03H590.55z M598.7,274.89l-3.74-11.46
			h-25.79l-3.74,11.46h-15.25l23.2-66.52h18.22l23.11,66.52H598.7L598.7,274.89z M634.18,274.89h-14.86v-66.52h14.86V274.89z"/>
	</g>
	<g id="SvgjsG1414" transform="matrix(0.7546702368650733,0,0,0.7546702368650733,34.305703369489216,172.62291248224065)">
		<path class="st2" d="M337.73,1079.12c4.22,3.98,12.94,8.06,21.67,8.06c13.42,0,21.96-6.99,21.96-17.97
			c0-8.93-4.22-14.18-18.79-22.53c-11.12-6.51-13.81-8.64-13.81-12.92c0-4.56,4.22-8.16,11.31-8.16c4.12,0,9.59,1.85,12.75,3.88
			l4.6-6.99c-4.51-3.01-11.6-5.24-17.26-5.24c-12.37,0-20.62,7.19-20.62,16.61c0,8.35,4.12,12.53,16.78,19.52
			c11.22,6.22,15.82,10.78,15.82,15.73c0,5.83-4.99,9.32-12.75,9.32c-6.71,0-13.42-3.2-16.78-6.31L337.73,1079.12z M406.04,1086.21
			v-67.98h8.63v67.98C414.67,1086.21,406.04,1086.21,406.04,1086.21z M468.49,1018.23c15.73,0,23.11,12.04,23.11,24.76
			c0,12.72-7.38,24.76-23.11,24.76h-16.78v18.45h-8.63v-67.98H468.49z M468.11,1059.41c8.82,0,14.67-6.89,14.67-16.41
			c0-9.52-5.85-16.41-14.67-16.41h-16.4v32.82H468.11z M519.35,1075.33h7.1l-6.04,19.52h-5.94L519.35,1075.33z M593.53,1079.12
			c4.22,3.98,12.94,8.06,21.67,8.06c13.42,0,21.96-6.99,21.96-17.97c0-8.93-4.22-14.18-18.79-22.53
			c-11.12-6.51-13.81-8.64-13.81-12.92c0-4.56,4.22-8.16,11.31-8.16c4.12,0,9.59,1.85,12.75,3.88l4.6-6.99
			c-4.51-3.01-11.6-5.24-17.26-5.24c-12.37,0-20.62,7.19-20.62,16.61c0,8.35,4.12,12.53,16.78,19.52
			c11.22,6.22,15.82,10.78,15.82,15.73c0,5.83-4.99,9.32-12.75,9.32c-6.71,0-13.42-3.2-16.78-6.31L593.53,1079.12z M725.99,1017.26
			h1.05v68.95h-8.53v-45.74l-23.78,31.46h-0.58l-23.78-31.37v45.64h-8.53v-68.95h0.96l31.64,40.79L725.99,1017.26z M755.46,1086.21
			v-67.98h8.63v67.98H755.46z M801.13,1077.86h28.38l-0.58,8.35H792.5v-67.98h8.63C801.13,1018.23,801.13,1077.86,801.13,1077.86z
			 M892.45,1077.86l0.58,8.35h-40.85v-67.98h38.93l0.67,8.35h-30.97v16.61h21v8.35h-21v26.32
			C860.81,1077.86,892.45,1077.86,892.45,1077.86z M919.71,1075.33h7.1l-6.04,19.52h-5.94L919.71,1075.33z M993.9,1079.12
			c4.22,3.98,12.94,8.06,21.67,8.06c13.42,0,21.96-6.99,21.96-17.97c0-8.93-4.22-14.18-18.79-22.53
			c-11.12-6.51-13.81-8.64-13.81-12.92c0-4.56,4.22-8.16,11.31-8.16c4.12,0,9.59,1.85,12.75,3.88l4.6-6.99
			c-4.51-3.01-11.6-5.24-17.26-5.24c-12.37,0-20.62,7.19-20.62,16.61c0,8.35,4.12,12.53,16.78,19.52
			c11.22,6.22,15.82,10.78,15.82,15.73c0,5.83-4.99,9.32-12.75,9.32c-6.71,0-13.42-3.2-16.78-6.31L993.9,1079.12z M1104.11,1018.23
			h8.63v67.98h-8.63v-31.27h-33.27v31.27h-8.63v-67.98h8.63v28.36h33.27V1018.23z M1185.26,1086.21l-5.85-13.79h-29.92l-5.85,13.79
			h-9.21l29.53-68.95h0.96l29.53,68.95H1185.26z M1152.95,1064.26h23.01l-11.51-26.9L1152.95,1064.26z M1262.29,1018.23h8.63v68.95
			h-1.05l-45.07-48.46v47.49h-8.53v-68.95h0.96l45.07,48.46V1018.23z M1383.56,1086.21l-19.85-30.98l-10.74,13.5v17.48h-8.63v-67.98
			h8.63v37l29.82-37h10.45l-23.68,29.72l24.07,38.26C1393.62,1086.21,1383.56,1086.21,1383.56,1086.21z M1417.15,1086.21v-67.98
			h8.63v67.98H1417.15z M1496.51,1052.22c0-19.62,15.25-34.96,34.42-34.96c8.05,0,15.73,2.72,22.53,7.96l-4.31,6.8
			c-5.66-4.37-11.51-6.51-18.22-6.51c-14.48,0-25.79,11.75-25.79,26.71s11.41,26.71,25.79,26.71c7.29,0,13.52-2.33,18.22-6.89
			l4.41,6.7c-5.85,5.34-14.1,8.45-22.63,8.45C1511.76,1087.18,1496.51,1071.74,1496.51,1052.22z M1620.14,1018.23h8.63v67.98h-8.63
			v-31.27h-33.27v31.27h-8.63v-67.98h8.63v28.36h33.27V1018.23z M1701.3,1086.21l-5.85-13.79h-29.92l-5.85,13.79h-9.21l29.53-68.95
			h0.96l29.53,68.95H1701.3z M1668.98,1064.26H1692l-11.51-26.9L1668.98,1064.26z M1732.3,1086.21v-67.98h8.63v67.98H1732.3z
			 M1810.61,1079.12c4.22,3.98,12.94,8.06,21.67,8.06c13.42,0,21.96-6.99,21.96-17.97c0-8.93-4.22-14.18-18.79-22.53
			c-11.12-6.51-13.81-8.64-13.81-12.92c0-4.56,4.22-8.16,11.31-8.16c4.12,0,9.59,1.85,12.75,3.88l4.6-6.99
			c-4.51-3.01-11.6-5.24-17.26-5.24c-12.37,0-20.62,7.19-20.62,16.61c0,8.35,4.12,12.53,16.78,19.52
			c11.22,6.22,15.82,10.78,15.82,15.73c0,5.83-4.99,9.32-12.75,9.32c-6.71,0-13.42-3.2-16.78-6.31L1810.61,1079.12z
			 M1920.82,1026.58h-19.56v59.63h-8.63v-59.63h-19.66l0.58-8.35h46.7L1920.82,1026.58z M1993.53,1018.23l-23.68,37.78v30.2h-8.63
			v-30.1l-23.78-37.87h9.78l18.31,29.23l18.22-29.23H1993.53L1993.53,1018.23z M2024.63,1077.86h28.38l-0.58,8.35H2016v-67.98h8.63
			C2024.63,1018.23,2024.63,1077.86,2024.63,1077.86z M2115.95,1077.86l0.58,8.35h-40.85v-67.98h38.93l0.67,8.35h-30.97v16.61h21
			v8.35h-21v26.32H2115.95L2115.95,1077.86z"/>
	</g>
</g>
</svg>
