<svg version="1.1" viewBox="0 0 640 400" xmlns="http://www.w3.org/2000/svg"  matcher="0.8173737301892161" width="40" height="40">
    <g viewBox="0 0 640 400" matcher="0.8173737301892161">
        <g matcher="0.8173737301892161">
            <g matcher="0.8173737301892161">
                <g matcher="0.8173737301892161">
                    <svg viewBox="0 0 640 400" data-background-color="none" preserveAspectRatio="xMidYMid meet" height="400" width="640" xmlns="http://www.w3.org/2000/svg">
                        <rect width="640" height="400" x="0" y="0" opacity="1" fill="none" data-fill-palette-color="background" id="background" class="svg-elem-1"></rect>
                        <g id="tight-bounds" transform="matrix(1,0,0,1,180.14,60.139999999999986)">
                            <svg viewBox="0 0 279.72 279.72" height="279.72" width="279.72">
                                <g>
                                    <svg viewBox="0 0 279.72 279.72" height="279.72" width="279.72">
                                        <g>
                                            <svg viewBox="0 0 279.72 279.72" height="279.72" width="279.72">
                                                <g id="textblocktransform">
                                                    <svg viewBox="0 0 279.72 279.72" height="279.72" width="279.72" id="textblock">
                                                        <g>
                                                            <svg viewBox="0 0 279.72 279.72" height="279.72" width="279.72">
                                                                <g transform="matrix(1,0,0,1,73.92936372216631,78.71765379169895)">
                                                                    <svg viewBox="0 0 131.8612725556674 122.28469241660213" height="122.28469241660213" width="131.8612725556674">
                                                                        <g>
                                                                            <svg xmlns="http://www.w3.org/2000/svg" version="1.1" x="0" y="0" viewBox="1.4926049709320068 5.230998992919922 95.24639129638672 88.32901000976562" enable-background="new 0 0 100 100" xml:space="preserve" height="122.28469241660213" width="131.8612725556674" class="icon-o-0" data-fill-palette-color="accent" id="o-0"><g fill="#cf8e56" data-fill-palette-color="accent"><path fill="#cf8e56" d="M16.701 38.042c-0.469 2.451-0.723 4.978-0.723 7.566 0 22.149 17.954 40.103 40.103 40.103s40.103-17.955 40.103-40.103c0-2.587-0.254-5.115-0.723-7.566H16.701z" data-fill-palette-color="accent" class="svg-elem-2"></path><path d="M15.422 45.608c0-2.548 0.245-5.129 0.732-7.671l0.087-0.451h79.678l0.087 0.451c0.487 2.544 0.733 5.125 0.733 7.671 0 22.419-18.24 40.658-40.658 40.658S15.422 68.027 15.422 45.608zM17.162 38.598c-0.418 2.326-0.629 4.682-0.629 7.011 0 21.807 17.741 39.547 39.547 39.547s39.547-17.741 39.547-39.547c0-2.325-0.211-4.682-0.63-7.011H17.162z" fill="#cf8e56" data-fill-palette-color="accent" class="svg-elem-3"></path></g><g fill="#cf8e56" data-fill-palette-color="accent"><rect x="8.941" y="91.176" fill="#cf8e56" width="86.559" height="2.384" data-fill-palette-color="accent" class="svg-elem-4"></rect></g><g fill="#cf8e56" data-fill-palette-color="accent"><rect x="8.941" y="88" fill="#cf8e56" width="86.559" height="2.384" data-fill-palette-color="accent" class="svg-elem-5"></rect></g><g fill="#cf8e56" data-fill-palette-color="accent"><path fill="#cf8e56" d="M3.68 64.082c-2.783-5.311-2.916-10.207-0.367-13.434 2.503-3.17 7.26-4.23 12.722-2.843l-0.41 1.615c-4.81-1.225-8.922-0.378-11.004 2.26-2.124 2.688-1.93 6.926 0.534 11.629 0.058 0.108 5.907 10.82 22.876 10.162l0.068 1.664c-0.544 0.022-1.076 0.032-1.6 0.032C9.685 75.168 3.741 64.196 3.68 64.082z" data-fill-palette-color="accent" class="svg-elem-6"></path></g><g fill="#cf8e56" data-fill-palette-color="accent"><g fill="#cf8e56" data-fill-palette-color="accent"><path fill="#cf8e56" d="M40.179 34.947c-2.835-3.727-4.022-6.658-3.732-9.226 0.341-3.033 2.692-4.847 4.964-6.601 3.788-2.924 7.06-5.45 3.652-12.953l1.518-0.936c4.137 9.105-0.497 12.682-4.221 15.556-2.041 1.576-3.971 3.064-4.21 5.193-0.216 1.924 0.868 4.423 3.315 7.64L40.179 34.947z" data-fill-palette-color="accent" class="svg-elem-7"></path></g></g><g fill="#cf8e56" data-fill-palette-color="accent"><g fill="#cf8e56" data-fill-palette-color="accent"><path fill="#cf8e56" d="M55.254 34.947c-2.836-3.727-4.022-6.658-3.733-9.226 0.341-3.033 2.692-4.847 4.964-6.601 3.788-2.924 7.06-5.45 3.652-12.953l1.518-0.936c4.136 9.105-0.497 12.682-4.221 15.556-2.041 1.576-3.97 3.064-4.209 5.193-0.216 1.924 0.868 4.423 3.314 7.64L55.254 34.947z" data-fill-palette-color="accent" class="svg-elem-8"></path></g></g><g fill="#cf8e56" data-fill-palette-color="accent"><g fill="#cf8e56" data-fill-palette-color="accent"><path fill="#cf8e56" d="M70.876 34.947c-2.836-3.727-4.022-6.658-3.733-9.226 0.341-3.033 2.692-4.847 4.964-6.601 3.788-2.924 7.06-5.45 3.652-12.953l1.518-0.936c4.136 9.105-0.497 12.682-4.221 15.556-2.041 1.576-3.97 3.064-4.209 5.193-0.216 1.924 0.868 4.423 3.314 7.64L70.876 34.947z" data-fill-palette-color="accent" class="svg-elem-9"></path></g></g><g fill="#cf8e56" data-fill-palette-color="accent"><path d="M57.728 86.205l-0.15-0.988c13.475-2.062 20.807-9.996 24.585-16.289 6.376-10.619 7.145-23.493 4.608-30.72l0.943-0.331c2.614 7.448 1.841 20.682-4.694 31.567C79.131 75.92 71.587 84.085 57.728 86.205z" fill="#cf8e56" data-fill-palette-color="accent" class="svg-elem-10"></path></g><g fill="#cf8e56" data-fill-palette-color="accent"><path d="M57.882 86.155l-0.459-0.889c19.763-10.185 24.208-34.29 19.726-47.059l0.943-0.331C82.692 50.981 78.142 75.714 57.882 86.155z" fill="#cf8e56" data-fill-palette-color="accent" class="svg-elem-11"></path></g><g fill="#cf8e56" data-fill-palette-color="accent"><path d="M55.852 86.155c-20.26-10.44-24.81-35.174-20.21-48.279l0.943 0.331c-4.482 12.769-0.036 36.875 19.726 47.059L55.852 86.155z" fill="#cf8e56" data-fill-palette-color="accent" class="svg-elem-12"></path></g><g fill="#cf8e56" data-fill-palette-color="accent"><path d="M55.324 86.205c-13.859-2.12-21.404-10.286-25.292-16.763-6.535-10.884-7.308-24.118-4.694-31.566l0.943 0.331c-2.536 7.228-1.768 20.101 4.608 30.72C34.667 75.221 42 83.155 55.475 85.217L55.324 86.205z" fill="#cf8e56" data-fill-palette-color="accent" class="svg-elem-13"></path></g></svg>
                                                                        </g>
                                                                    </svg>
                                                                </g>
                                                                <g>
                                                                    <path d="M4.384 97.1v0c-1.325 3.888-0.524 6.331 2.404 7.328v0c1.633 0.557 2.907 0.49 3.821-0.199 0.912-0.683 2.138-2.289 3.679-4.816 1.538-2.521 2.985-4.188 4.341-4.999 1.362-0.808 3.155-0.834 5.377-0.076v0c5.515 1.879 7.298 5.679 5.349 11.399v0c-0.646 1.896-1.671 4.192-3.076 6.888v0l-0.679 1.334-2.371-1.162c1.666-3.357 2.812-5.955 3.438-7.794v0c1.307-3.837 0.161-6.369-3.439-7.595v0c-1.454-0.495-2.642-0.428-3.564 0.201-0.92 0.623-1.994 2.012-3.222 4.168v0c-1.679 2.809-3.244 4.675-4.695 5.596-1.457 0.919-3.39 0.968-5.799 0.148v0c-4.817-1.641-6.242-5.348-4.275-11.12v0c0.646-1.896 1.614-4.097 2.904-6.603v0l0.64-1.251 2.436 1.13c-1.669 3.449-2.758 5.924-3.269 7.423z" fill="#864622" data-fill-palette-color="primary" class="svg-elem-14"></path>
                                                                    <path d="M47.393 71.453l-1.654 2.641-10.883-6.815-7.667 12.243 10.884 6.815-1.676 2.675-24.063-15.068 1.675-2.676 10.78 6.751 7.666-12.243-10.78-6.75 1.654-2.642z" fill="#864622" data-fill-palette-color="primary" class="svg-elem-15"></path>
                                                                    <path d="M55.116 63.731l-2.302 2.101-13.384-26.226 5.09-4.647 24.9 15.714-2.302 2.101-6.441-4.016-8.974 8.192zM44.593 38.563l-1.582 1.444 7.306 14.387 7.94-7.248z" fill="#864622" data-fill-palette-color="primary" class="svg-elem-16"></path>
                                                                    <path d="M76.845 46.12l-2.734 1.496-6.795-28.648 6.046-3.31 20.472 21.161-2.734 1.497-5.308-5.427-10.658 5.835zM72.58 19.176l-1.879 1.029 3.692 15.707 9.43-5.162z" fill="#864622" data-fill-palette-color="primary" class="svg-elem-17"></path>
                                                                    <path d="M104.639 33.434l-3.044 0.837-7.528-27.376 5.697-1.566 17.27 21.802 0.832-0.229-6.788-24.685 3.005-0.826 7.528 27.376-5.579 1.534-17.427-21.759-0.754 0.208z" fill="#864622" data-fill-palette-color="primary" class="svg-elem-18"></path>
                                                                    <path d="M150.408 16.246l-1.341 12.321-3.139-0.341 3.072-28.226 3.139 0.342-1.429 13.128 4.669 0.345 8.627-12.182 3.593 0.391-9.628 13.309 7 14.965-3.714-0.404-6.139-13.299z" fill="#cf8e56" data-fill-palette-color="accent" class="svg-elem-19"></path>
                                                                    <path d="M176.222 33.685l-3.037-0.861 7.746-27.315 3.037 0.861z" fill="#cf8e56" data-fill-palette-color="accent" class="svg-elem-20"></path>
                                                                    <path d="M214.823 50.969l-1.384 2.334c-2.666-1.068-4.939-2.218-6.818-3.45-1.873-1.228-3.218-2.478-4.035-3.75-0.821-1.266-1.189-2.649-1.105-4.147 0.078-1.502 0.461-3.036 1.147-4.601 0.68-1.569 1.711-3.406 3.091-5.511 1.376-2.1 2.656-3.786 3.837-5.058 1.176-1.276 2.441-2.255 3.795-2.938 1.348-0.686 2.759-0.906 4.233-0.661 1.473 0.246 3.124 0.968 4.952 2.167 1.834 1.202 3.819 2.864 5.957 4.985v0l-1.566 2.166c-2.038-1.927-3.96-3.482-5.766-4.666v0c-2.519-1.651-4.677-1.994-6.475-1.028-1.793 0.969-3.872 3.259-6.239 6.87v0c-1.187 1.811-2.067 3.314-2.64 4.508-0.573 1.194-0.929 2.373-1.068 3.536-0.143 1.169 0.08 2.217 0.669 3.146 0.583 0.925 1.682 1.916 3.295 2.973 1.613 1.057 3.653 2.099 6.12 3.125z" fill="#864622" data-fill-palette-color="primary" class="svg-elem-21"></path>
                                                                    <path d="M233.835 74.901l-2.142-2.263 9.324-8.829-9.932-10.489-9.324 8.829-2.17-2.293 20.616-19.521 2.171 2.293-9.236 8.745 9.931 10.489 9.236-8.745 2.143 2.262z" fill="#864622" data-fill-palette-color="primary" class="svg-elem-22"></path>
                                                                    <path d="M239.377 84.313l-1.458-2.754 28.741-6.392 3.225 6.091-21.447 20.173-1.458-2.754 5.501-5.231-5.685-10.74zM266.378 80.427l-1.002-1.893-15.758 3.471 5.029 9.501z" fill="#864622" data-fill-palette-color="primary" class="svg-elem-23"></path>
                                                                    <path d="M252.315 112.831l-1.003-2.993 26.92-9.023 1.003 2.993z" fill="#864622" data-fill-palette-color="primary" class="svg-elem-24"></path>
                                                                    <path d="M26.108 216.439c-0.475-0.78-0.745-1.622-0.812-2.524v0c-0.03-0.401-0.005-0.769 0.077-1.105v0c-0.344-0.005-0.687-0.061-1.03-0.169v0c-0.268-0.114-0.413-0.177-0.435-0.187v0l-0.253-0.416 3.148-1.916 0.401 0.659c-0.436 0.495-0.78 1.022-1.035 1.581v0c-0.548 1.26-0.497 2.425 0.154 3.494v0c0.383 0.63 0.877 1.019 1.482 1.166 0.604 0.147 1.222 0.029 1.852-0.355v0c0.364-0.222 0.621-0.529 0.771-0.92 0.159-0.39 0.251-0.811 0.277-1.262 0.023-0.457 0.027-1.074 0.015-1.851v0c-0.039-0.975-0.028-1.789 0.033-2.444 0.055-0.651 0.236-1.292 0.542-1.922 0.309-0.624 0.805-1.144 1.487-1.559v0c0.538-0.327 1.118-0.474 1.74-0.441 0.62 0.043 1.245 0.288 1.874 0.737 0.63 0.449 1.213 1.115 1.752 1.999v0c0.387 0.636 0.594 1.386 0.62 2.249v0c0.015 0.324-0.014 0.674-0.086 1.051v0c0.399 0.018 0.743 0.075 1.03 0.169v0c0.264 0.109 0.409 0.171 0.435 0.187v0l0.253 0.416-3.147 1.916-0.407-0.668c0.447-0.462 0.797-0.968 1.049-1.518v0c0.26-0.523 0.406-1.063 0.439-1.621 0.042-0.556-0.092-1.089-0.402-1.598v0c-0.264-0.434-0.66-0.7-1.187-0.798-0.531-0.105-1.063 0.005-1.594 0.328v0c-0.405 0.246-0.7 0.588-0.885 1.026-0.176 0.44-0.28 0.907-0.311 1.402-0.032 0.495-0.037 1.143-0.016 1.946v0c0.023 0.936 0.014 1.715-0.029 2.335-0.052 0.618-0.215 1.216-0.488 1.794-0.277 0.573-0.714 1.04-1.309 1.403v0c-0.595 0.362-1.243 0.523-1.942 0.481-0.699-0.042-1.402-0.319-2.11-0.831-0.704-0.506-1.355-1.251-1.953-2.234z" fill="#864622" data-fill-palette-color="primary" class="svg-elem-25"></path>
                                                                    <path d="M30.061 222.138l0.24-0.17 0.907 0.787 6.952-4.937-0.436-1.123 0.24-0.17 1.464 2.061c0.67 0.943 0.531 1.752-0.419 2.426v0l-6.008 4.267 0.444 1.117-0.24 0.17zM40.371 217.916c-0.227-0.32-0.311-0.659-0.25-1.018 0.061-0.359 0.251-0.651 0.572-0.879v0c0.314-0.223 0.651-0.305 1.009-0.244 0.359 0.061 0.651 0.251 0.879 0.571v0c0.223 0.314 0.305 0.651 0.244 1.01-0.061 0.359-0.248 0.65-0.563 0.873v0c-0.32 0.227-0.659 0.311-1.018 0.249-0.359-0.061-0.65-0.248-0.873-0.562z" fill="#864622" data-fill-palette-color="primary" class="svg-elem-26"></path>
                                                                    <path d="M31.044 230.056l0.227-0.187 0.962 0.719 9.567-7.896-0.516-1.087 0.227-0.188 1.112 1.347c0.487 0.59 0.68 1.212 0.578 1.865v0c-0.048 0.25-0.143 0.513-0.284 0.788v0c0.364-0.09 0.724-0.111 1.08-0.063v0c0.819 0.078 1.502 0.449 2.05 1.112v0c0.487 0.59 0.768 1.239 0.844 1.949 0.076 0.709-0.073 1.442-0.448 2.199-0.366 0.758-0.974 1.488-1.825 2.191v0c-1.274 1.051-2.498 1.561-3.673 1.53-1.17-0.026-2.171-0.542-3.002-1.549v0c-0.396-0.48-0.641-0.984-0.735-1.513v0c-0.053-0.202-0.081-0.438-0.084-0.707v0l-2.92 2.41 0.524 1.081-0.227 0.187zM37.899 231.808c0.358 0.433 0.879 0.56 1.565 0.381 0.695-0.179 1.713-0.821 3.054-1.929v0c1.289-1.064 2.096-1.91 2.42-2.537 0.324-0.628 0.355-1.1 0.093-1.419v0c-0.31-0.376-0.788-0.551-1.435-0.527v0c-0.275 0.007-0.564 0.061-0.866 0.163v0l-5.16 4.258c-0.025 0.257-0.033 0.449-0.026 0.574v0c0.026 0.435 0.144 0.781 0.355 1.036z" fill="#864622" data-fill-palette-color="primary" class="svg-elem-27"></path>
                                                                    <path d="M40.858 239.528l0.223-0.474c0.249 0.137 0.541 0.235 0.874 0.293v0c0.686 0.117 1.332-0.021 1.937-0.414v0l-0.292-0.074c-0.18-0.063-0.353-0.183-0.52-0.361v0c-0.264-0.281-0.39-0.627-0.377-1.038 0.013-0.411 0.16-0.749 0.44-1.013v0c0.281-0.264 0.627-0.39 1.039-0.378 0.411 0.013 0.749 0.16 1.013 0.441v0c0.311 0.33 0.45 0.711 0.417 1.14-0.028 0.425-0.236 0.821-0.625 1.187v0c-0.863 0.811-1.805 1.163-2.827 1.055v0c-0.454-0.028-0.888-0.15-1.302-0.364z" fill="#864622" data-fill-palette-color="primary" class="svg-elem-28"></path>
                                                                    <path d="M53.331 248.187c-0.694-0.594-1.213-1.31-1.557-2.147v0c-0.154-0.372-0.244-0.73-0.27-1.073v0c-0.328 0.102-0.672 0.155-1.032 0.16v0c-0.29-0.025-0.447-0.04-0.471-0.043v0l-0.37-0.317 2.395-2.799 0.586 0.501c-0.26 0.606-0.424 1.214-0.491 1.824v0c-0.129 1.368 0.282 2.459 1.233 3.273v0c0.56 0.48 1.151 0.695 1.771 0.647 0.62-0.048 1.17-0.353 1.65-0.913v0c0.277-0.324 0.426-0.695 0.446-1.114 0.03-0.42-0.013-0.849-0.129-1.286-0.121-0.442-0.308-1.03-0.562-1.764v0c-0.34-0.914-0.583-1.692-0.728-2.333-0.15-0.636-0.178-1.301-0.083-1.995 0.1-0.689 0.41-1.337 0.928-1.944v0c0.409-0.478 0.915-0.798 1.517-0.961 0.603-0.152 1.273-0.113 2.01 0.118 0.738 0.231 1.5 0.682 2.287 1.355v0c0.566 0.484 0.995 1.132 1.289 1.945v0c0.115 0.303 0.197 0.645 0.245 1.024v0c0.385-0.107 0.729-0.16 1.032-0.159v0c0.285 0.021 0.442 0.035 0.471 0.043v0l0.37 0.316-2.395 2.8-0.594-0.508c0.281-0.579 0.456-1.168 0.524-1.769v0c0.085-0.578 0.056-1.137-0.087-1.678-0.133-0.542-0.426-1.006-0.879-1.393v0c-0.386-0.33-0.845-0.46-1.376-0.39-0.537 0.066-1.008 0.335-1.413 0.809v0c-0.308 0.36-0.482 0.777-0.522 1.25-0.03 0.473 0.016 0.949 0.14 1.429 0.124 0.48 0.321 1.098 0.59 1.855v0c0.313 0.883 0.546 1.625 0.699 2.227 0.143 0.603 0.174 1.222 0.094 1.858-0.085 0.631-0.355 1.211-0.807 1.74v0c-0.453 0.53-1.018 0.883-1.696 1.061-0.677 0.177-1.432 0.133-2.264-0.134-0.827-0.262-1.677-0.767-2.551-1.515z" fill="#cf8e56" data-fill-palette-color="accent" class="svg-elem-29"></path>
                                                                    <path d="M59.065 252.474l0.164-0.244 1.128 0.414 4.747-7.083-0.805-0.895 0.163-0.244 1.451 0.972c0.635 0.426 0.998 0.966 1.088 1.622v0c0.031 0.257 0.016 0.536-0.047 0.836v0c0.361-0.198 0.694-0.325 1-0.381v0c0.807-0.159 1.52-0.032 2.139 0.383v0c0.624 0.418 1.08 0.923 1.367 1.515 0.291 0.586 0.408 1.202 0.35 1.848v0c0.37-0.2 0.711-0.338 1.023-0.414v0c0.838-0.18 1.563-0.065 2.176 0.346v0c0.568 0.381 1 0.842 1.297 1.383 0.297 0.541 0.436 1.099 0.418 1.673-0.022 0.58-0.195 1.112-0.519 1.595v0l-3.453 5.152 0.803 0.88-0.164 0.245-2.091-1.402c-0.967-0.648-1.126-1.456-0.479-2.422v0l2.804-4.182c0.467-0.697 0.711-1.291 0.731-1.783 0.02-0.492-0.105-0.828-0.375-1.009v0c-0.309-0.207-0.767-0.205-1.374 0.007v0c-0.265 0.116-0.521 0.254-0.767 0.415v0l-3.996 5.962 0.803 0.88-0.164 0.245-4.502-3.019 0.164-0.244 1.119 0.408 3.453-5.152c0.467-0.697 0.711-1.291 0.731-1.783 0.02-0.492-0.105-0.828-0.374-1.009v0c-0.309-0.207-0.77-0.207-1.383 0.002v0c-0.259 0.119-0.515 0.258-0.767 0.415v0l-3.996 5.962 0.812 0.886-0.164 0.244z" fill="#cf8e56" data-fill-palette-color="accent" class="svg-elem-30"></path>
                                                                    <path d="M74.833 262.826l0.139-0.26 1.163 0.303 4.035-7.512-0.889-0.812 0.14-0.259 2.226 1.196c1.019 0.548 1.254 1.334 0.703 2.359v0l-3.487 6.493 0.894 0.802-0.14 0.26zM82.195 254.463c-0.346-0.186-0.571-0.453-0.676-0.801-0.105-0.348-0.064-0.695 0.121-1.041v0c0.183-0.34 0.448-0.562 0.796-0.667 0.348-0.105 0.695-0.064 1.041 0.121v0c0.34 0.183 0.562 0.448 0.667 0.796 0.105 0.348 0.066 0.692-0.116 1.032v0c-0.186 0.346-0.453 0.571-0.801 0.676-0.348 0.105-0.692 0.066-1.032-0.116z" fill="#cf8e56" data-fill-palette-color="accent" class="svg-elem-31"></path>
                                                                    <path d="M80.891 265.994l0.126-0.266 1.177 0.242 5.3-11.216-0.93-0.765 0.121-0.257 2.286 1.08c1.046 0.494 1.321 1.268 0.823 2.321v0l-4.801 10.159 0.934 0.756-0.126 0.266z" fill="#cf8e56" data-fill-palette-color="accent" class="svg-elem-32"></path>
                                                                    <path d="M91.947 271.052c-1.543-0.606-2.573-1.501-3.089-2.686-0.523-1.187-0.492-2.524 0.092-4.01v0c0.384-0.976 0.905-1.749 1.565-2.319 0.656-0.578 1.394-0.929 2.212-1.05 0.819-0.122 1.659-0.013 2.522 0.325v0c0.869 0.341 1.568 0.801 2.098 1.381 0.526 0.585 0.858 1.221 0.995 1.907 0.137 0.687 0.076 1.361-0.183 2.022v0c-0.116 0.296-0.246 0.543-0.389 0.741v0l-0.214 0.265c-0.559-0.096-1.152-0.223-1.78-0.383v0c-1.335-0.321-2.645-0.734-3.93-1.238v0c-0.549 1.398-0.748 2.469-0.597 3.212 0.149 0.749 0.561 1.256 1.235 1.521v0c0.466 0.183 0.944 0.244 1.434 0.181 0.492-0.068 0.93-0.238 1.312-0.509 0.377-0.274 0.64-0.603 0.792-0.987v0l0.453 0.178c-0.188 0.479-0.512 0.878-0.973 1.199-0.46 0.321-1 0.509-1.617 0.564-0.618 0.055-1.264-0.049-1.938-0.314zM92.02 265.563c0.768 0.302 1.404 0.515 1.908 0.64v0c0.213 0.069 0.441 0.126 0.686 0.171v0c0.037-0.058 0.121-0.178 0.25-0.36v0c0.175-0.28 0.33-0.59 0.464-0.93v0c0.391-0.995 0.544-1.775 0.46-2.338-0.081-0.57-0.308-0.928-0.68-1.074v0c-0.901-0.354-1.93 0.943-3.088 3.891z" fill="#cf8e56" data-fill-palette-color="accent" class="svg-elem-33"></path>
                                                                    <path d="M97.553 275.462l-0.032-0.523c0.285 0 0.587-0.055 0.907-0.164v0c0.657-0.227 1.157-0.659 1.499-1.295v0l-0.292 0.076c-0.188 0.031-0.398 0.009-0.629-0.066v0c-0.367-0.119-0.644-0.362-0.831-0.729-0.187-0.367-0.221-0.733-0.101-1.1v0c0.119-0.367 0.362-0.644 0.729-0.831 0.367-0.187 0.733-0.221 1.1-0.101v0c0.431 0.14 0.736 0.406 0.915 0.799 0.18 0.386 0.188 0.833 0.023 1.342v0c-0.366 1.126-1.023 1.888-1.97 2.284v0c-0.412 0.194-0.851 0.296-1.318 0.308z" fill="#cf8e56" data-fill-palette-color="accent" class="svg-elem-34"></path>
                                                                    <path d="M112.654 277.05c-0.894-0.187-1.693-0.564-2.397-1.133v0c-0.314-0.252-0.565-0.522-0.754-0.81v0c-0.238 0.248-0.514 0.46-0.828 0.636v0c-0.266 0.117-0.411 0.18-0.433 0.189v0l-0.477-0.099 0.753-3.607 0.755 0.157c0.064 0.656 0.212 1.268 0.446 1.836v0c0.546 1.261 1.431 2.02 2.657 2.276v0c0.722 0.151 1.343 0.056 1.864-0.285 0.52-0.341 0.856-0.872 1.007-1.595v0c0.087-0.417 0.039-0.815-0.146-1.191-0.176-0.382-0.42-0.737-0.731-1.066-0.318-0.329-0.765-0.754-1.341-1.275v0c-0.738-0.638-1.325-1.203-1.762-1.695-0.438-0.485-0.782-1.055-1.033-1.709-0.244-0.652-0.285-1.369-0.121-2.151v0c0.129-0.616 0.418-1.14 0.867-1.571 0.455-0.424 1.061-0.712 1.819-0.865 0.758-0.153 1.643-0.124 2.657 0.088v0c0.729 0.152 1.417 0.514 2.065 1.084v0c0.246 0.21 0.482 0.471 0.708 0.78v0c0.286-0.279 0.562-0.491 0.828-0.636v0c0.26-0.119 0.404-0.182 0.433-0.189v0l0.477 0.099-0.752 3.607-0.766-0.159c-0.032-0.643-0.162-1.244-0.391-1.803v0c-0.204-0.547-0.498-1.023-0.884-1.429-0.377-0.411-0.858-0.677-1.44-0.798v0c-0.497-0.104-0.962 0.003-1.394 0.32-0.439 0.316-0.723 0.779-0.85 1.389v0c-0.097 0.464-0.049 0.913 0.144 1.347 0.201 0.429 0.471 0.824 0.81 1.185 0.339 0.361 0.809 0.808 1.41 1.342v0c0.7 0.623 1.261 1.162 1.685 1.617 0.416 0.46 0.741 0.988 0.976 1.582 0.229 0.594 0.272 1.232 0.13 1.915v0c-0.142 0.682-0.468 1.264-0.977 1.746-0.508 0.482-1.191 0.806-2.048 0.972-0.851 0.168-1.839 0.135-2.966-0.101z" fill="#864622" data-fill-palette-color="primary" class="svg-elem-35"></path>
                                                                    <path d="M119.637 278.056l0.033-0.293 1.191-0.154 1.364-12.329-1.127-0.421 0.031-0.283 2.512 0.278c1.15 0.127 1.661 0.769 1.533 1.926v0l-0.34 3.078c0.223-0.234 0.448-0.417 0.673-0.549v0c0.598-0.363 1.258-0.504 1.978-0.424v0c0.713 0.079 1.339 0.301 1.876 0.667 0.538 0.366 0.942 0.809 1.212 1.329 0.269 0.527 0.373 1.059 0.313 1.597v0l-0.682 6.165 1.119 0.409-0.032 0.293-2.503-0.277c-1.157-0.128-1.671-0.77-1.543-1.927v0l0.554-5.005c0.089-0.807 0.013-1.442-0.229-1.904-0.242-0.462-0.554-0.715-0.937-0.757v0c-0.484-0.054-0.95 0.154-1.397 0.621v0c-0.185 0.197-0.355 0.437-0.508 0.72v0l-0.789 7.133 1.129 0.411-0.033 0.293z" fill="#864622" data-fill-palette-color="primary" class="svg-elem-36"></path>
                                                                    <path d="M136.694 279.72c-1.15-0.017-2.033-0.277-2.648-0.781-0.615-0.496-0.917-1.127-0.906-1.891v0c0.007-0.507 0.126-1.003 0.357-1.487v0c0.091-0.229 0.21-0.44 0.354-0.634v0c0.536-0.121 1.113-0.227 1.731-0.32v0c1.397-0.216 2.634-0.34 3.711-0.372v0l0.008-0.589c0.021-1.435-0.14-2.425-0.484-2.971-0.337-0.546-0.868-0.825-1.591-0.836v0c-0.271-0.004-0.505 0.026-0.702 0.091v0l-0.276 0.088-0.042 2.903-0.245 0.057c-0.21 0.024-0.386 0.035-0.528 0.033v0c-0.44-0.006-0.79-0.144-1.05-0.412-0.26-0.268-0.387-0.622-0.38-1.061v0c0.009-0.595 0.317-1.095 0.925-1.499 0.602-0.404 1.498-0.597 2.689-0.58v0c1.008 0.015 1.875 0.204 2.601 0.566 0.726 0.369 1.273 0.868 1.643 1.497 0.37 0.635 0.549 1.358 0.536 2.17v0l-0.077 5.237 1.163 0.302-0.004 0.294-1.746-0.026c-0.778-0.011-1.377-0.261-1.796-0.747v0c-0.173-0.192-0.312-0.438-0.416-0.737v0c-0.181 0.322-0.398 0.61-0.652 0.864v0c-0.584 0.573-1.309 0.854-2.175 0.841zM137.476 279.051c0.48 0.007 0.917-0.247 1.31-0.763v0c0.145-0.187 0.298-0.442 0.458-0.764v0l0.042-2.812c-0.595-0.009-1.164 0.017-1.707 0.077v0c-0.4 0.041-0.671 0.068-0.813 0.079v0c-0.07 0.141-0.137 0.336-0.202 0.586v0c-0.143 0.485-0.217 0.968-0.224 1.448v0c-0.011 0.724 0.093 1.26 0.311 1.609 0.211 0.355 0.486 0.535 0.825 0.54z" fill="#864622" data-fill-palette-color="primary" class="svg-elem-37"></path>
                                                                    <path d="M148.871 279.398c-1.147 0.088-2.05-0.09-2.709-0.534-0.658-0.438-1.017-1.038-1.075-1.801v0c-0.039-0.506 0.034-1.011 0.219-1.513v0c0.07-0.236 0.168-0.458 0.295-0.664v0c0.523-0.169 1.088-0.328 1.694-0.477v0c1.372-0.343 2.592-0.58 3.662-0.71v0l-0.046-0.587c-0.11-1.43-0.362-2.402-0.754-2.915-0.386-0.513-0.94-0.742-1.661-0.686v0c-0.27 0.021-0.5 0.072-0.691 0.155v0l-0.266 0.112 0.223 2.895-0.238 0.079c-0.207 0.043-0.381 0.07-0.523 0.081v0c-0.439 0.034-0.8-0.071-1.083-0.313-0.283-0.243-0.442-0.584-0.476-1.023v0c-0.046-0.594 0.216-1.12 0.784-1.577 0.562-0.457 1.437-0.732 2.625-0.823v0c1.005-0.077 1.886 0.031 2.641 0.325 0.756 0.301 1.347 0.748 1.773 1.34 0.426 0.598 0.671 1.302 0.733 2.112v0l0.403 5.223 1.186 0.193 0.022 0.294-1.741 0.134c-0.776 0.06-1.395-0.133-1.856-0.58v0c-0.19-0.175-0.35-0.407-0.482-0.696v0c-0.15 0.337-0.341 0.644-0.57 0.92v0c-0.529 0.624-1.225 0.97-2.089 1.036zM149.588 278.661c0.479-0.037 0.891-0.33 1.235-0.879v0c0.127-0.2 0.256-0.468 0.386-0.804v0l-0.216-2.803c-0.594 0.046-1.158 0.123-1.692 0.232v0c-0.394 0.078-0.662 0.129-0.803 0.153v0c-0.057 0.147-0.106 0.348-0.147 0.602v0c-0.098 0.496-0.128 0.984-0.091 1.463v0c0.056 0.722 0.208 1.246 0.458 1.574 0.243 0.334 0.533 0.488 0.87 0.462z" fill="#864622" data-fill-palette-color="primary" class="svg-elem-38"></path>
                                                                    <path d="M157.21 278.3l-0.051-0.289 1.101-0.482-1.476-8.399-1.2-0.088-0.051-0.289 1.719-0.303c0.753-0.132 1.389 0.007 1.908 0.418v0c0.201 0.164 0.382 0.376 0.545 0.636v0c0.115-0.364 0.274-0.687 0.479-0.971v0c0.472-0.674 1.135-1.086 1.988-1.236v0c0.707-0.124 1.369-0.086 1.989 0.115 0.619 0.2 1.131 0.512 1.535 0.936 0.405 0.43 0.655 0.912 0.749 1.445v0l1.073 6.109 1.189 0.08 0.051 0.29-2.48 0.435c-1.146 0.201-1.82-0.271-2.022-1.417v0l-0.871-4.959c-0.141-0.8-0.392-1.388-0.753-1.764-0.362-0.376-0.732-0.531-1.112-0.464v0c-0.48 0.084-0.869 0.414-1.166 0.988v0c-0.122 0.241-0.218 0.519-0.287 0.833v0l1.242 7.069 1.199 0.078 0.051 0.29z" fill="#864622" data-fill-palette-color="primary" class="svg-elem-39"></path>
                                                                    <path d="M175.988 274.326l-0.093-0.28 1.018-0.637-3.911-11.772-1.201 0.089-0.09-0.27 5.25-1.745 0.09 0.27-1.015 0.648 1.917 5.77 2.684-6.989-1.563-0.101-0.09-0.27 3.488-1.158 0.089 0.269-1.288 1.049-1.905 5.018 7.477 5.891 1.005-0.034 0.093 0.279-2.572 0.855c-0.552 0.184-1.067 0.201-1.545 0.053-0.477-0.148-0.964-0.411-1.459-0.788v0l-4.161-3.313 1.742 5.24 1.197-0.098 0.093 0.279z" fill="#cf8e56" data-fill-palette-color="accent" class="svg-elem-40"></path>
                                                                    <path d="M188.802 269.948l-0.114-0.272 0.966-0.714-3.301-7.862-1.19 0.181-0.114-0.272 2.331-0.978c1.067-0.448 1.826-0.135 2.276 0.938v0l2.853 6.795 1.186-0.19 0.114 0.271zM186.932 258.964c-0.362 0.152-0.711 0.159-1.048 0.022-0.337-0.138-0.581-0.387-0.733-0.75v0c-0.149-0.356-0.155-0.702-0.018-1.038 0.138-0.337 0.387-0.581 0.749-0.733v0c0.356-0.149 0.702-0.155 1.039-0.018 0.337 0.138 0.58 0.384 0.729 0.74v0c0.152 0.362 0.159 0.711 0.022 1.048-0.138 0.337-0.384 0.58-0.74 0.729z" fill="#cf8e56" data-fill-palette-color="accent" class="svg-elem-41"></path>
                                                                    <path d="M206.189 261.658c-1.798 1.014-3.506 1.27-5.126 0.769-1.616-0.495-2.978-1.727-4.088-3.696v0c-0.731-1.297-1.137-2.533-1.217-3.708-0.077-1.184 0.15-2.241 0.683-3.17 0.538-0.933 1.335-1.697 2.391-2.292v0c0.643-0.362 1.396-0.542 2.259-0.539v0c0.324-0.004 0.673 0.036 1.047 0.12v0c0.026-0.395 0.091-0.735 0.195-1.019v0c0.123-0.264 0.193-0.408 0.21-0.433v0l0.415-0.234 1.81 3.21-0.672 0.379c-0.453-0.459-0.947-0.826-1.482-1.099v0c-0.514-0.277-1.049-0.442-1.606-0.493-0.56-0.057-1.1 0.061-1.619 0.353v0c-0.772 0.435-1.16 1.249-1.164 2.44-0.008 1.185 0.56 2.792 1.703 4.82v0c1.16 2.057 2.266 3.372 3.319 3.943 1.059 0.568 2.071 0.58 3.038 0.035v0c0.531-0.299 0.95-0.734 1.258-1.303 0.311-0.564 0.478-1.178 0.499-1.843 0.016-0.661-0.133-1.269-0.445-1.823v0l0.424-0.24c0.362 0.643 0.53 1.34 0.504 2.093-0.029 0.747-0.249 1.453-0.658 2.119-0.4 0.668-0.96 1.205-1.678 1.611z" fill="#864622" data-fill-palette-color="primary" class="svg-elem-42"></path>
                                                                    <path d="M211.519 258.11l-0.17-0.241 0.79-0.905-7.151-10.136-1.124 0.433-0.164-0.232 2.066-1.458c0.946-0.667 1.754-0.525 2.425 0.426v0l1.784 2.53c0.012-0.323 0.059-0.609 0.141-0.857v0c0.208-0.668 0.607-1.211 1.199-1.629v0c0.586-0.414 1.202-0.662 1.848-0.744 0.646-0.083 1.242-0.019 1.787 0.192 0.55 0.216 0.981 0.546 1.294 0.988v0l3.576 5.068 1.109-0.435 0.17 0.241-2.057 1.451c-0.951 0.671-1.762 0.531-2.434-0.42v0l-2.902-4.114c-0.468-0.664-0.946-1.088-1.434-1.275-0.487-0.186-0.889-0.168-1.204 0.055v0c-0.398 0.281-0.609 0.745-0.633 1.391v0c-0.008 0.271 0.024 0.563 0.096 0.876v0l4.138 5.864 1.117-0.441 0.17 0.241z" fill="#864622" data-fill-palette-color="primary" class="svg-elem-43"></path>
                                                                    <path d="M225.393 248.048c-0.872 0.75-1.706 1.141-2.5 1.172-0.79 0.036-1.434-0.235-1.932-0.816v0c-0.331-0.385-0.57-0.835-0.719-1.349v0c-0.083-0.232-0.135-0.468-0.155-0.71v0c0.322-0.446 0.683-0.908 1.083-1.387v0c0.903-1.088 1.747-2.001 2.532-2.739v0l-0.384-0.446c-0.935-1.088-1.713-1.722-2.333-1.904-0.615-0.186-1.197-0.042-1.745 0.43v0c-0.205 0.176-0.36 0.354-0.465 0.534v0l-0.148 0.248 1.892 2.201-0.145 0.205c-0.141 0.157-0.266 0.282-0.374 0.375v0c-0.334 0.287-0.686 0.416-1.058 0.388-0.372-0.028-0.702-0.209-0.989-0.542v0c-0.388-0.452-0.489-1.03-0.301-1.736 0.182-0.701 0.725-1.44 1.629-2.217v0c0.765-0.657 1.539-1.091 2.322-1.3 0.788-0.204 1.529-0.194 2.222 0.03 0.698 0.23 1.311 0.653 1.841 1.269v0l3.414 3.972 1.071-0.545 0.192 0.223-1.324 1.138c-0.59 0.507-1.203 0.718-1.84 0.632v0c-0.257-0.029-0.524-0.121-0.8-0.277v0c0.078 0.361 0.106 0.721 0.084 1.079v0c-0.057 0.816-0.414 1.507-1.07 2.072zM225.534 247.029c0.364-0.313 0.523-0.793 0.476-1.44v0c-0.016-0.236-0.071-0.528-0.164-0.876v0l-1.833-2.132c-0.452 0.388-0.861 0.784-1.227 1.189v0c-0.272 0.296-0.457 0.496-0.556 0.598v0c0.041 0.152 0.121 0.343 0.237 0.573v0c0.215 0.458 0.479 0.869 0.793 1.233v0c0.472 0.549 0.905 0.882 1.299 0.998 0.394 0.126 0.719 0.078 0.976-0.143z" fill="#864622" data-fill-palette-color="primary" class="svg-elem-44"></path>
                                                                    <path d="M231.396 242.326l-0.207-0.209 0.627-1.024-6.013-6.046-1.035 0.614-0.208-0.209 1.793-1.782c0.821-0.816 1.641-0.811 2.462 0.014v0l5.196 5.226 1.028-0.622 0.208 0.209zM225.537 232.85c-0.278 0.277-0.599 0.415-0.963 0.413-0.364-0.001-0.684-0.141-0.961-0.419v0c-0.272-0.274-0.407-0.592-0.407-0.956 0.001-0.364 0.141-0.684 0.419-0.96v0c0.274-0.272 0.592-0.407 0.956-0.407 0.364 0.001 0.682 0.138 0.954 0.412v0c0.277 0.278 0.415 0.599 0.413 0.963-0.001 0.364-0.138 0.682-0.411 0.954z" fill="#864622" data-fill-palette-color="primary" class="svg-elem-45"></path>
                                                                    <path d="M243.311 229.497c-0.571 0.713-1.269 1.256-2.095 1.627v0c-0.367 0.166-0.721 0.268-1.063 0.306v0c0.113 0.324 0.178 0.666 0.193 1.025v0c-0.016 0.291-0.025 0.448-0.027 0.473v0l-0.304 0.38-2.878-2.302 0.482-0.602c0.614 0.24 1.227 0.384 1.839 0.431v0c1.372 0.084 2.449-0.364 3.231-1.341v0c0.461-0.576 0.657-1.173 0.588-1.791-0.069-0.618-0.391-1.158-0.967-1.619v0c-0.333-0.266-0.709-0.403-1.128-0.409-0.421-0.016-0.848 0.041-1.281 0.171-0.438 0.135-1.019 0.342-1.744 0.62v0c-0.903 0.37-1.672 0.638-2.308 0.805-0.631 0.171-1.295 0.221-1.991 0.149-0.692-0.077-1.35-0.365-1.974-0.864v0c-0.491-0.393-0.828-0.888-1.01-1.484-0.172-0.597-0.155-1.268 0.051-2.013 0.206-0.745 0.633-1.522 1.279-2.33v0c0.465-0.581 1.099-1.032 1.901-1.353v0c0.299-0.125 0.638-0.218 1.016-0.279v0c-0.119-0.382-0.184-0.723-0.193-1.025v0c0.012-0.285 0.021-0.443 0.027-0.473v0l0.304-0.38 2.877 2.302-0.488 0.61c-0.588-0.262-1.183-0.417-1.785-0.466v0c-0.58-0.066-1.138-0.018-1.674 0.143-0.537 0.151-0.991 0.459-1.363 0.924v0c-0.317 0.396-0.432 0.859-0.344 1.388 0.083 0.535 0.368 0.997 0.854 1.386v0c0.37 0.296 0.792 0.456 1.267 0.48 0.473 0.015 0.948-0.048 1.423-0.187 0.476-0.139 1.087-0.357 1.835-0.651v0c0.872-0.342 1.606-0.6 2.203-0.772 0.598-0.163 1.216-0.215 1.853-0.155 0.633 0.064 1.222 0.314 1.766 0.749v0c0.544 0.435 0.916 0.989 1.116 1.66 0.2 0.671 0.18 1.427-0.058 2.267-0.235 0.835-0.711 1.702-1.43 2.6z" fill="#cf8e56" data-fill-palette-color="accent" class="svg-elem-46"></path>
                                                                    <path d="M250.4 219.767c-0.477 0.707-1.02 1.234-1.63 1.582-0.606 0.342-1.228 0.502-1.867 0.48-0.638-0.022-1.243-0.226-1.815-0.612v0l-4.898-3.303-0.755 1.119-0.404-0.272 0.755-1.119-0.8-0.54c-0.965-0.651-1.122-1.459-0.471-2.423v0l0.76-1.128 2.247 1.515 1.516-2.247 0.404 0.273-1.516 2.247 4.899 3.303c0.988 0.666 1.732 1.021 2.232 1.065 0.501 0.044 0.886-0.133 1.155-0.532v0c0.261-0.387 0.3-0.851 0.117-1.39-0.179-0.545-0.589-1.034-1.228-1.465v0l0.266-0.396c0.791 0.533 1.27 1.142 1.438 1.827 0.169 0.693 0.034 1.366-0.405 2.016z" fill="#cf8e56" data-fill-palette-color="accent" class="svg-elem-47"></path>
                                                                    <path d="M256.809 216.71c-0.286 0.507-0.64 0.823-1.062 0.951-0.431 0.13-0.882 0.061-1.353-0.205v0c-0.43-0.243-0.698-0.546-0.804-0.91-0.106-0.363-0.05-0.736 0.166-1.118v0c0.05-0.088 0.11-0.175 0.181-0.259 0.068-0.078 0.111-0.135 0.132-0.171v0l0.151-0.206 2.28 1.289c0.13-0.354 0.112-0.741-0.055-1.162-0.161-0.417-0.527-0.986-1.099-1.706v0l-0.654-0.824-10.577-0.184-0.731 0.694-0.256-0.144 1.189-2.104c0.333-0.589 0.72-0.985 1.161-1.186 0.435-0.205 0.958-0.298 1.568-0.279v0l5.091 0.091-3.578-4.355-1.218 0.979-0.256-0.145 1.763-3.119 0.256 0.144-0.255 1.628 6.787 8.292c0.716 0.879 1.165 1.638 1.347 2.277 0.177 0.636 0.119 1.214-0.174 1.732z" fill="#cf8e56" data-fill-palette-color="accent" class="svg-elem-48"></path>
                                                                    <path d="M257.417 207.167l-0.264-0.13 0.26-1.173-11.132-5.473-0.779 0.918-0.255-0.125 1.115-2.269c0.511-1.038 1.288-1.301 2.332-0.787v0l10.085 4.958 0.77-0.923 0.264 0.13z" fill="#cf8e56" data-fill-palette-color="accent" class="svg-elem-49"></path>
                                                                    <path d="M262.646 196.191c-0.63 1.534-1.541 2.549-2.733 3.048-1.195 0.504-2.531 0.453-4.009-0.155v0c-0.97-0.399-1.735-0.932-2.294-1.601-0.568-0.665-0.907-1.408-1.016-2.228-0.109-0.82 0.012-1.659 0.365-2.517v0c0.355-0.864 0.826-1.556 1.413-2.076 0.593-0.517 1.234-0.839 1.922-0.966 0.689-0.127 1.362-0.055 2.019 0.215v0c0.294 0.121 0.539 0.255 0.735 0.401v0l0.262 0.217c-0.104 0.557-0.241 1.148-0.411 1.774v0c-0.342 1.33-0.775 2.634-1.299 3.911v0c1.39 0.571 2.457 0.786 3.202 0.646 0.752-0.137 1.265-0.541 1.54-1.211v0c0.19-0.463 0.258-0.94 0.204-1.43-0.061-0.493-0.224-0.933-0.489-1.321-0.268-0.381-0.593-0.65-0.975-0.806v0l0.185-0.451c0.476 0.195 0.87 0.526 1.184 0.991 0.314 0.465 0.493 1.007 0.539 1.627 0.046 0.619-0.069 1.263-0.344 1.932zM257.158 196.033c0.314-0.764 0.537-1.396 0.67-1.898v0c0.072-0.212 0.133-0.439 0.182-0.683v0c-0.057-0.038-0.176-0.124-0.356-0.256v0c-0.277-0.18-0.585-0.339-0.923-0.478v0c-0.989-0.406-1.766-0.572-2.331-0.496-0.571 0.073-0.933 0.294-1.084 0.662v0c-0.368 0.895 0.913 1.945 3.842 3.149z" fill="#cf8e56" data-fill-palette-color="accent" class="svg-elem-50"></path>
                                                                    <path d="M265.194 189.174c-0.125 0.365-0.373 0.638-0.742 0.819-0.37 0.181-0.737 0.209-1.102 0.083v0c-0.365-0.125-0.638-0.373-0.818-0.742-0.181-0.37-0.209-0.737-0.084-1.102v0c0.125-0.365 0.373-0.638 0.742-0.818 0.37-0.181 0.737-0.209 1.102-0.084v0c0.365 0.125 0.638 0.373 0.819 0.742 0.181 0.37 0.209 0.737 0.083 1.102z" fill="#cf8e56" data-fill-palette-color="accent" class="svg-elem-51"></path>
                                                                    <path d="M0.485 146.144c0-6.086 4.934-11.02 11.02-11.021 6.086 0 11.02 4.934 11.021 11.021 0 6.086-4.934 11.02-11.021 11.02-6.086 0-11.02-4.934-11.02-11.02z" data-fill-palette-color="primary" class="svg-elem-52"></path>
                                                                    <path d="M256.039 146.144c0-6.086 4.934-11.02 11.02-11.021 6.086 0 11.02 4.934 11.02 11.021 0 6.086-4.934 11.02-11.02 11.02-6.086 0-11.02-4.934-11.02-11.02z" data-fill-palette-color="primary" class="svg-elem-53"></path>
                                                                </g>
                                                            </svg>
                                                        </g>
                                                    </svg>
                                                </g>
                                            </svg>
                                        </g>
                                    </svg>
                                </g>
                                <defs></defs>
                            </svg>
                            <rect width="279.72" height="279.72" fill="none" stroke="none" class="svg-elem-54"></rect>
                        </g>
                    </svg>
                </g>
            </g>
        </g>
    </g>
</svg>